<?xml version="1.0" encoding="UTF-8" standalone="no"?>
<!-- Created with Inkscape (http://www.inkscape.org/) -->

<svg
   width="210mm"
   height="297mm"
   viewBox="0 0 210 297"
   version="1.1"
   id="svg1"
   xml:space="preserve"
   inkscape:version="1.3.2 (091e20e, 2023-11-25, custom)"
   sodipodi:docname="logo.svg"
   xmlns:inkscape="http://www.inkscape.org/namespaces/inkscape"
   xmlns:sodipodi="http://sodipodi.sourceforge.net/DTD/sodipodi-0.dtd"
   xmlns="http://www.w3.org/2000/svg"
   xmlns:svg="http://www.w3.org/2000/svg"><sodipodi:namedview
     id="namedview1"
     pagecolor="#ffffff"
     bordercolor="#000000"
     borderopacity="0.25"
     inkscape:showpageshadow="2"
     inkscape:pageopacity="0.0"
     inkscape:pagecheckerboard="0"
     inkscape:deskcolor="#d1d1d1"
     inkscape:document-units="mm"
     showguides="false"
     inkscape:zoom="1.0449705"
     inkscape:cx="400.01129"
     inkscape:cy="561.25986"
     inkscape:window-width="1343"
     inkscape:window-height="1237"
     inkscape:window-x="587"
     inkscape:window-y="71"
     inkscape:window-maximized="0"
     inkscape:current-layer="g13" /><defs
     id="defs1" /><g
     inkscape:label="Vrstva 1"
     inkscape:groupmode="layer"
     id="layer1"><g
       transform="matrix(0.03527778,0,0,-0.03527778,24.147633,257.13365)"
       fill="#000000"
       stroke="none"
       id="g13"><path
         d="m 2030,5005 c -47,-7 -90,-14 -96,-14 -6,-1 -16,-25 -23,-53 -16,-71 -66,-158 -91,-158 -34,0 -42,33 -16,71 25,36 51,107 43,115 -13,13 -214,-53 -354,-116 l -72,-32 6,-47 c 4,-39 -9,-138 -34,-255 l -6,-29 34,20 c 153,95 377,180 564,215 l 120,23 76,75 c 67,67 149,172 149,192 0,12 -206,7 -300,-7 z"
         id="path1" /><path
         d="m 2400,5007 c 0,-22 -71,-126 -128,-188 -29,-31 -52,-60 -52,-63 0,-3 46,-6 103,-6 175,0 400,-43 556,-105 36,-14 75,-25 87,-25 63,0 324,96 324,119 0,15 -149,94 -265,140 l -100,40 -27,-33 c -59,-72 -167,-120 -181,-82 -7,19 8,35 70,76 91,60 86,64 -108,103 -167,34 -279,44 -279,24 z"
         id="path2" /><path
         d="m 1267,4730 c -83,-53 -217,-151 -235,-173 -8,-9 -7,-27 4,-64 19,-66 15,-162 -8,-176 -31,-20 -48,8 -48,82 0,98 -10,105 -65,51 -50,-49 -177,-202 -218,-263 l -25,-37 33,-56 c 18,-30 45,-90 60,-132 15,-42 30,-85 34,-96 5,-15 16,-3 53,60 92,158 266,360 393,456 24,18 49,44 54,58 37,88 78,341 55,339 -5,0 -44,-22 -87,-49 z"
         id="path3" /><path
         d="m 3301,4664 c -30,-18 -91,-45 -135,-59 -45,-15 -88,-29 -96,-31 -9,-3 4,-15 35,-32 170,-93 394,-284 499,-424 29,-38 57,-51 181,-82 86,-21 205,-31 205,-17 0,18 -77,139 -153,239 -63,85 -72,93 -96,88 -138,-32 -203,-32 -215,1 -11,28 13,43 73,43 68,0 101,8 101,24 0,24 -314,288 -338,285 -4,-1 -31,-16 -61,-35 z"
         id="path4" /><path
         id="path5"
         d="M 2282.2481 4688.1293 C 2249.2481 4688.0043 2215.0068 4685.0034 2145.0069 4679.0034 C 2090.0069 4674.0034 1989.0068 4655.9946 1920.0069 4639.9946 C 1618.0072 4565.9946 1371.9969 4426.9954 1149.9972 4200.9956 C 971.99734 4020.9958 850.00199 3821.9924 770.00207 3582.9927 C 709.00213 3400.9929 695.00208 3306.9944 695.00208 3079.9947 C 695.00208 2853.9949 709.00213 2759.0033 770.00207 2579.0035 C 964.00188 1997.0041 1465.0075 1576.9986 2070.0069 1488.9987 C 2171.0068 1474.9987 2416.9972 1474.9948 2514.9971 1489.9948 C 2759.9968 1525.9947 2977.0021 1609.9978 3185.0019 1747.9977 C 3647.0015 2053.9974 3921.9931 2594.005 3895.9931 3145.0044 C 3867.9931 3746.0038 3518.9965 4274.0036 2979.997 4529.0034 C 2793.9972 4616.0033 2620.0037 4662.9995 2412.0039 4679.9995 C 2347.004 4685.4994 2315.248 4688.2543 2282.2481 4688.1293 z M 2294.0547 4565.0678 A 1485.6877 1485.6877 0 0 0 3779.7431 3079.3794 A 1485.6877 1485.6877 0 0 0 2294.0547 1593.6911 A 1485.6877 1485.6877 0 0 0 808.36633 3079.3794 A 1485.6877 1485.6877 0 0 0 2294.0547 4565.0678 z " /><path
         d="m 556,3948 c -35,-73 -72,-156 -82,-183 l -17,-50 49,-51 c 27,-28 58,-70 68,-93 18,-38 18,-43 3,-58 -21,-22 -43,-11 -66,34 -10,21 -33,51 -49,67 l -31,28 -10,-38 c -28,-104 -44,-189 -56,-294 -8,-63 -13,-115 -12,-116 1,0 29,-15 63,-33 34,-18 93,-62 133,-97 l 71,-66 v 70 c 0,183 31,368 94,554 l 43,128 -24,92 c -24,97 -85,238 -102,238 -5,0 -39,-60 -75,-132 z"
         id="path6" /><path
         d="m 3723,3947 c 102,-174 183,-387 216,-572 l 19,-110 86,-82 c 89,-87 172,-147 189,-136 17,11 -12,353 -35,396 -5,10 -20,17 -37,17 -34,0 -151,58 -165,82 -8,13 -6,22 7,35 17,17 20,16 68,-10 27,-16 63,-32 79,-37 27,-8 30,-6 30,13 0,31 -73,243 -114,332 l -35,75 h -80 c -73,0 -187,18 -236,36 -17,7 -16,3 8,-39 z"
         id="path7" /><path
         d="m 3962,3030 c -3,-162 -33,-328 -88,-488 l -45,-133 26,-96 c 26,-99 83,-228 100,-228 12,0 105,178 145,278 l 31,79 -49,52 c -75,80 -103,146 -66,160 27,10 33,7 53,-33 23,-43 69,-101 81,-101 17,0 80,319 80,408 0,36 -4,44 -25,52 -41,15 -136,84 -180,129 -21,23 -44,41 -50,41 -6,0 -11,-45 -13,-120 z"
         id="path8" /><path
         d="m 350,3041 c 0,-67 27,-320 34,-329 2,-1 30,-9 62,-18 83,-21 144,-59 144,-88 0,-36 -24,-38 -87,-6 -79,40 -99,42 -94,10 6,-46 52,-184 98,-292 l 45,-108 h 86 c 50,0 120,-8 165,-19 42,-10 77,-17 77,-16 0,2 -29,58 -65,126 -72,139 -136,320 -160,454 -9,50 -19,101 -21,114 -6,30 -149,172 -219,217 -30,19 -57,34 -60,34 -3,0 -5,-36 -5,-79 z"
         id="path9" /><path
         d="m 3773,2297 c -6,-6 -25,-38 -42,-70 -77,-136 -244,-331 -377,-438 -56,-46 -64,-57 -82,-117 -30,-97 -42,-165 -42,-233 v -60 l 48,26 c 49,27 193,128 256,180 l 36,30 -15,44 c -10,28 -15,70 -13,115 3,68 4,71 28,71 24,0 25,-3 32,-79 4,-44 12,-84 17,-89 12,-12 51,25 152,143 77,90 139,174 139,188 0,6 -14,33 -31,61 -17,27 -46,93 -64,145 -23,67 -36,92 -42,83 z"
         id="path10" /><path
         d="m 597,2144 c -10,-10 66,-128 161,-252 58,-76 67,-83 91,-78 151,36 206,32 206,-14 0,-24 -3,-25 -75,-30 -104,-8 -110,-14 -63,-62 47,-49 180,-161 252,-213 48,-35 55,-37 75,-25 58,38 128,71 191,90 39,13 74,26 79,30 4,5 -11,18 -35,31 -67,33 -206,131 -286,201 -70,61 -233,236 -233,250 0,10 -131,48 -220,64 -82,15 -133,17 -143,8 z"
         id="path11" /><path
         d="m 3165,1654 c -38,-31 -260,-133 -352,-163 -51,-17 -145,-40 -210,-52 l -118,-23 -68,-65 c -71,-68 -157,-179 -157,-201 0,-16 248,-8 348,11 54,10 62,14 62,34 0,63 66,185 100,185 34,0 34,-28 1,-92 -17,-33 -31,-70 -31,-80 0,-17 5,-19 33,-13 86,19 358,122 381,145 5,5 9,35 7,67 -2,53 20,208 35,247 8,20 -5,20 -31,0 z"
         id="path12" /><path
         d="m 1530,1521 c -92,-25 -186,-63 -217,-87 l -27,-21 135,-66 c 74,-37 157,-75 186,-85 l 51,-19 39,39 c 77,80 164,111 171,62 2,-17 -9,-28 -50,-52 -57,-32 -95,-67 -81,-75 29,-18 357,-77 425,-77 10,0 29,23 49,61 18,33 61,91 96,129 35,37 63,70 63,73 0,2 -69,7 -152,10 -177,7 -300,30 -469,87 -63,22 -124,40 -135,39 -10,0 -48,-8 -84,-18 z"
         id="path13" /><text
         xml:space="preserve"
         style="font-size:480px;line-height:3.4;text-align:center;text-anchor:middle;fill:#ffffff;stroke-width:7.5"
         x="2290.0686"
         y="-3741.5146"
         id="text14"
         transform="scale(1,-1)"><tspan
           sodipodi:role="line"
           style="font-style:normal;font-variant:normal;font-weight:normal;font-stretch:normal;font-size:480px;font-family:Anton;-inkscape-font-specification:Anton;text-align:center;text-anchor:middle;fill:#ff6600;stroke-width:7.5;line-height:3.4"
           x="2290.0686"
           y="-3741.5146"
           id="tspan1">Pojazdný</tspan><tspan
           sodipodi:role="line"
           style="font-style:normal;font-variant:normal;font-weight:normal;font-stretch:normal;font-size:480px;font-family:Anton;-inkscape-font-specification:Anton;text-align:center;text-anchor:middle;fill:#ff6600;stroke-width:7.5;line-height:3.4"
           x="2290.0686"
           y="-2107.8406"
           id="tspan4">pneuservis</tspan></text><g
         transform="matrix(0.44242963,0,0,0.44242963,1161.433,1946.7589)"
         fill="#000000"
         stroke="none"
         id="g7"><path
           d="m 296,3569 c -37,-44 -53,-78 -72,-151 -14,-54 -18,-145 -21,-621 l -5,-557 2364,2 2363,3 -3,75 c -5,92 -31,158 -83,204 -47,44 -87,64 -225,116 -227,86 -230,89 -699,494 -330,286 -445,364 -610,415 -163,51 -162,51 -1622,51 H 322 Z m 2684,-321 c 0,-7 11,-146 24,-308 13,-162 22,-298 19,-302 -2,-5 -515,-8 -1140,-8 H 747 l -125,123 -124,122 5,160 c 3,88 11,175 17,193 l 12,32 h 1224 c 972,0 1224,-3 1224,-12 z m 440,1 c 92,-14 152,-46 252,-130 285,-242 577,-495 577,-501 1,-11 -290,-10 -452,2 -256,19 -457,82 -581,183 l -30,24 -15,216 -16,217 h 100 c 55,0 129,-5 165,-11 z m -3038,-436 28,-27 v -197 c 0,-213 1,-209 -56,-209 h -24 v 223 c 0,123 3,227 7,230 10,11 15,9 45,-20 z m 4207,-288 c 116,-39 160,-67 185,-118 30,-64 27,-66 -78,-44 -90,19 -94,21 -110,54 -9,19 -40,59 -68,89 -28,30 -47,54 -41,54 5,0 56,-16 112,-35 z"
           id="path1-0" /><path
           d="m 640,3027 v -102 l 78,-78 77,-77 h 1044 1044 l -7,103 c -3,56 -9,137 -13,180 l -6,77 H 1749 640 Z"
           id="path2-5" /><path
           d="m 1010,2151 c -79,-25 -159,-91 -198,-165 -24,-45 -27,-62 -27,-146 0,-84 3,-101 27,-145 32,-60 87,-114 148,-146 38,-20 60,-24 140,-24 87,0 100,3 149,30 192,106 230,358 77,511 -64,64 -139,94 -229,93 -34,0 -73,-4 -87,-8 z m 177,-189 c 91,-65 78,-209 -23,-257 -73,-34 -160,-5 -197,66 -23,43 -18,119 10,157 46,63 147,79 210,34 z"
           id="path3-6" /><path
           d="m 4095,2145 c -70,-26 -135,-84 -174,-155 -33,-60 -36,-71 -36,-150 0,-78 3,-91 35,-148 59,-111 161,-172 284,-172 153,0 273,96 312,249 35,138 -37,290 -170,358 -63,33 -187,41 -251,18 z m 175,-173 c 103,-51 108,-201 8,-262 -130,-79 -289,89 -200,210 49,66 124,87 192,52 z"
           id="path4-5" /><path
           d="m 150,2091 c -5,-11 -10,-69 -10,-129 v -108 l 248,-32 c 136,-18 249,-32 252,-32 3,0 6,30 7,66 3,74 23,148 60,212 l 24,42 H 446 c -272,0 -286,-1 -296,-19 z"
           id="path5-3" /><path
           d="m 1472,2103 c 67,-134 72,-149 76,-235 l 4,-88 h 1099 1099 v 64 c 0,70 28,174 60,221 11,17 20,33 20,38 0,4 -531,7 -1181,7 -649,0 -1179,-3 -1177,-7 z"
           id="path6-7" /><path
           d="m 4607,2043 c 34,-70 53,-146 53,-215 v -40 l 43,7 c 126,19 234,81 263,152 8,18 14,62 14,98 v 65 h -203 -203 z"
           id="path7-8" /></g></g></g></svg>
